<mxfile host="app.diagrams.net" modified="2023-01-14T17:53:46.048Z" agent="5.0 (Macintosh; Intel Mac OS X 10_15_7) AppleWebKit/537.36 (KHTML, like Gecko) Chrome/91.0.4472.114 Safari/537.36" version="20.8.5" etag="MvNa5ZSQ5QS9uXneWmx1" type="github">
  <diagram id="wtswVw4b2DIBDtsOtBge" name="第 1 页">
    <mxGraphModel dx="763" dy="493" grid="1" gridSize="10" guides="1" tooltips="1" connect="1" arrows="1" fold="1" page="1" pageScale="1" pageWidth="1169" pageHeight="1654" math="0" shadow="0">
      <root>
        <mxCell id="0" />
        <mxCell id="1" parent="0" />
        <mxCell id="PBYCk-HcuRerdCBnMbYj-23" value="" style="rounded=0;whiteSpace=wrap;html=1;dashed=1;strokeWidth=1;" vertex="1" parent="1">
          <mxGeometry x="880" y="170" width="100" height="110" as="geometry" />
        </mxCell>
        <mxCell id="PBYCk-HcuRerdCBnMbYj-24" value="" style="rounded=0;whiteSpace=wrap;html=1;dashed=1;strokeWidth=1;" vertex="1" parent="1">
          <mxGeometry x="1070" y="160" width="290" height="80" as="geometry" />
        </mxCell>
        <mxCell id="PBYCk-HcuRerdCBnMbYj-25" style="edgeStyle=orthogonalEdgeStyle;orthogonalLoop=1;jettySize=auto;html=1;entryX=0.5;entryY=0;entryDx=0;entryDy=0;fontSize=11;fontColor=#B3B3B3;strokeWidth=0.5;rounded=1;" edge="1" parent="1" source="PBYCk-HcuRerdCBnMbYj-26" target="PBYCk-HcuRerdCBnMbYj-29">
          <mxGeometry relative="1" as="geometry" />
        </mxCell>
        <mxCell id="PBYCk-HcuRerdCBnMbYj-26" value="&lt;font style=&quot;font-size: 18px; background-color: rgb(255, 255, 255);&quot;&gt;图文一致性模型&lt;/font&gt;" style="rounded=1;whiteSpace=wrap;html=1;fontFamily=Lucida Console;" vertex="1" parent="1">
          <mxGeometry x="811.62" y="300" width="270" height="60" as="geometry" />
        </mxCell>
        <mxCell id="PBYCk-HcuRerdCBnMbYj-27" style="edgeStyle=orthogonalEdgeStyle;rounded=0;orthogonalLoop=1;jettySize=auto;html=1;entryX=0.426;entryY=-0.008;entryDx=0;entryDy=0;entryPerimeter=0;strokeWidth=0.5;" edge="1" parent="1" source="PBYCk-HcuRerdCBnMbYj-28" target="PBYCk-HcuRerdCBnMbYj-26">
          <mxGeometry relative="1" as="geometry" />
        </mxCell>
        <mxCell id="PBYCk-HcuRerdCBnMbYj-28" value="&lt;font style=&quot;font-size: 12px&quot;&gt;&lt;font&gt;标题/正文融合&lt;/font&gt;&lt;br&gt;&lt;/font&gt;" style="rounded=1;whiteSpace=wrap;html=1;fontFamily=Lucida Console;fillColor=#FFFFFF;fontColor=#000000;" vertex="1" parent="1">
          <mxGeometry x="884.72" y="240" width="83.37" height="25.62" as="geometry" />
        </mxCell>
        <mxCell id="PBYCk-HcuRerdCBnMbYj-29" value="&lt;font style=&quot;font-size: 12px&quot;&gt;图文是否相关&lt;/font&gt;" style="rounded=1;whiteSpace=wrap;html=1;fontFamily=Lucida Console;" vertex="1" parent="1">
          <mxGeometry x="901.2100000000002" y="400" width="90.81" height="20" as="geometry" />
        </mxCell>
        <mxCell id="PBYCk-HcuRerdCBnMbYj-30" value="" style="edgeStyle=orthogonalEdgeStyle;orthogonalLoop=1;jettySize=auto;html=1;fontSize=12;strokeWidth=0.5;rounded=1;" edge="1" parent="1" source="PBYCk-HcuRerdCBnMbYj-31" target="PBYCk-HcuRerdCBnMbYj-44">
          <mxGeometry relative="1" as="geometry" />
        </mxCell>
        <mxCell id="PBYCk-HcuRerdCBnMbYj-31" value="标题&amp;nbsp; &amp;nbsp;正文" style="rounded=1;whiteSpace=wrap;html=1;fontFamily=Lucida Console;" vertex="1" parent="1">
          <mxGeometry x="881.62" y="130" width="90" height="20" as="geometry" />
        </mxCell>
        <mxCell id="PBYCk-HcuRerdCBnMbYj-32" style="edgeStyle=orthogonalEdgeStyle;orthogonalLoop=1;jettySize=auto;html=1;entryX=0.872;entryY=0.043;entryDx=0;entryDy=0;entryPerimeter=0;fontSize=12;fontColor=#FFFFFF;strokeWidth=0.5;rounded=1;" edge="1" parent="1" source="PBYCk-HcuRerdCBnMbYj-35" target="PBYCk-HcuRerdCBnMbYj-26">
          <mxGeometry relative="1" as="geometry" />
        </mxCell>
        <mxCell id="PBYCk-HcuRerdCBnMbYj-33" style="edgeStyle=orthogonalEdgeStyle;orthogonalLoop=1;jettySize=auto;html=1;entryX=0.5;entryY=0;entryDx=0;entryDy=0;fontSize=12;fontColor=#FFFFFF;strokeWidth=0.5;rounded=1;" edge="1" parent="1" source="PBYCk-HcuRerdCBnMbYj-35" target="PBYCk-HcuRerdCBnMbYj-37">
          <mxGeometry relative="1" as="geometry">
            <Array as="points">
              <mxPoint x="1183" y="170" />
              <mxPoint x="1126" y="170" />
            </Array>
          </mxGeometry>
        </mxCell>
        <mxCell id="PBYCk-HcuRerdCBnMbYj-34" style="edgeStyle=orthogonalEdgeStyle;orthogonalLoop=1;jettySize=auto;html=1;entryX=0.5;entryY=0;entryDx=0;entryDy=0;fontSize=11;fontColor=#B3B3B3;strokeWidth=0.5;rounded=1;" edge="1" parent="1" source="PBYCk-HcuRerdCBnMbYj-35" target="PBYCk-HcuRerdCBnMbYj-41">
          <mxGeometry relative="1" as="geometry" />
        </mxCell>
        <mxCell id="PBYCk-HcuRerdCBnMbYj-50" style="edgeStyle=orthogonalEdgeStyle;rounded=1;orthogonalLoop=1;jettySize=auto;html=1;entryX=0.5;entryY=0;entryDx=0;entryDy=0;strokeWidth=0.5;" edge="1" parent="1" source="PBYCk-HcuRerdCBnMbYj-35" target="PBYCk-HcuRerdCBnMbYj-49">
          <mxGeometry relative="1" as="geometry">
            <Array as="points">
              <mxPoint x="1183" y="170" />
              <mxPoint x="1322" y="170" />
            </Array>
          </mxGeometry>
        </mxCell>
        <mxCell id="PBYCk-HcuRerdCBnMbYj-35" value="图片" style="rounded=1;whiteSpace=wrap;html=1;fontFamily=Lucida Console;" vertex="1" parent="1">
          <mxGeometry x="1135.4" y="130" width="95.81" height="20" as="geometry" />
        </mxCell>
        <mxCell id="PBYCk-HcuRerdCBnMbYj-36" style="edgeStyle=orthogonalEdgeStyle;orthogonalLoop=1;jettySize=auto;html=1;entryX=0.5;entryY=0;entryDx=0;entryDy=0;fontSize=11;fontColor=#B3B3B3;strokeWidth=0.5;rounded=1;" edge="1" parent="1" source="PBYCk-HcuRerdCBnMbYj-37" target="PBYCk-HcuRerdCBnMbYj-39">
          <mxGeometry relative="1" as="geometry">
            <Array as="points">
              <mxPoint x="1126" y="230" />
              <mxPoint x="1187" y="230" />
            </Array>
          </mxGeometry>
        </mxCell>
        <mxCell id="PBYCk-HcuRerdCBnMbYj-37" value="&lt;font style=&quot;font-size: 12px&quot;&gt;协同语义 2.0&lt;/font&gt;" style="rounded=1;whiteSpace=wrap;html=1;fontFamily=Lucida Console;fontColor=#000000;" vertex="1" parent="1">
          <mxGeometry x="1081.62" y="185.94" width="88.39" height="26.87" as="geometry" />
        </mxCell>
        <mxCell id="PBYCk-HcuRerdCBnMbYj-38" style="edgeStyle=orthogonalEdgeStyle;orthogonalLoop=1;jettySize=auto;html=1;entryX=0.5;entryY=0;entryDx=0;entryDy=0;fontSize=11;fontColor=#B3B3B3;strokeWidth=0.5;rounded=1;" edge="1" parent="1" source="PBYCk-HcuRerdCBnMbYj-39" target="PBYCk-HcuRerdCBnMbYj-29">
          <mxGeometry relative="1" as="geometry">
            <Array as="points">
              <mxPoint x="1187" y="370" />
              <mxPoint x="947" y="370" />
            </Array>
          </mxGeometry>
        </mxCell>
        <mxCell id="PBYCk-HcuRerdCBnMbYj-39" value="文本关键词和图片标签相似度" style="rounded=1;whiteSpace=wrap;html=1;fontFamily=Lucida Console;" vertex="1" parent="1">
          <mxGeometry x="1103.31" y="250" width="166.69" height="30" as="geometry" />
        </mxCell>
        <mxCell id="PBYCk-HcuRerdCBnMbYj-40" style="edgeStyle=orthogonalEdgeStyle;orthogonalLoop=1;jettySize=auto;html=1;entryX=0.5;entryY=0;entryDx=0;entryDy=0;fontSize=11;fontColor=#B3B3B3;strokeWidth=0.5;rounded=1;" edge="1" parent="1" source="PBYCk-HcuRerdCBnMbYj-41" target="PBYCk-HcuRerdCBnMbYj-39">
          <mxGeometry relative="1" as="geometry">
            <Array as="points">
              <mxPoint x="1238" y="230" />
              <mxPoint x="1187" y="230" />
            </Array>
          </mxGeometry>
        </mxCell>
        <mxCell id="PBYCk-HcuRerdCBnMbYj-41" value="人脸/OCR" style="rounded=1;whiteSpace=wrap;html=1;fontFamily=Lucida Console;" vertex="1" parent="1">
          <mxGeometry x="1205.81" y="187.19" width="64.19" height="25.62" as="geometry" />
        </mxCell>
        <mxCell id="PBYCk-HcuRerdCBnMbYj-42" style="edgeStyle=orthogonalEdgeStyle;orthogonalLoop=1;jettySize=auto;html=1;entryX=0.164;entryY=-0.032;entryDx=0;entryDy=0;entryPerimeter=0;fontSize=12;strokeWidth=0.5;rounded=1;" edge="1" parent="1" source="PBYCk-HcuRerdCBnMbYj-44" target="PBYCk-HcuRerdCBnMbYj-26">
          <mxGeometry relative="1" as="geometry">
            <Array as="points">
              <mxPoint x="856" y="200" />
            </Array>
          </mxGeometry>
        </mxCell>
        <mxCell id="PBYCk-HcuRerdCBnMbYj-43" style="edgeStyle=orthogonalEdgeStyle;rounded=0;orthogonalLoop=1;jettySize=auto;html=1;exitX=0.5;exitY=1;exitDx=0;exitDy=0;entryX=0.5;entryY=0;entryDx=0;entryDy=0;strokeWidth=0.5;" edge="1" parent="1" source="PBYCk-HcuRerdCBnMbYj-44" target="PBYCk-HcuRerdCBnMbYj-28">
          <mxGeometry relative="1" as="geometry" />
        </mxCell>
        <mxCell id="PBYCk-HcuRerdCBnMbYj-44" value="&lt;font face=&quot;lucida console&quot;&gt;标题分类&lt;/font&gt;" style="rhombus;whiteSpace=wrap;html=1;fontSize=12;fillColor=#FFFFFF;fontColor=#000000;" vertex="1" parent="1">
          <mxGeometry x="896.4099999999999" y="180" width="60" height="40" as="geometry" />
        </mxCell>
        <mxCell id="PBYCk-HcuRerdCBnMbYj-45" value="&lt;meta charset=&quot;utf-8&quot;&gt;&lt;span style=&quot;color: rgb(179, 179, 179); font-family: helvetica; font-size: 11px; font-style: normal; font-weight: 400; letter-spacing: normal; text-align: center; text-indent: 0px; text-transform: none; word-spacing: 0px; background-color: rgb(248, 249, 250); display: inline; float: none;&quot;&gt;图片纬度&lt;/span&gt;" style="text;whiteSpace=wrap;html=1;fontSize=11;fontColor=#B3B3B3;" vertex="1" parent="1">
          <mxGeometry x="1055.89" y="150" width="70" height="30" as="geometry" />
        </mxCell>
        <mxCell id="PBYCk-HcuRerdCBnMbYj-46" value="&lt;span style=&quot;color: rgb(179 , 179 , 179) ; font-family: &amp;#34;helvetica&amp;#34; ; font-size: 11px ; font-style: normal ; font-weight: 400 ; letter-spacing: normal ; text-align: center ; text-indent: 0px ; text-transform: none ; word-spacing: 0px ; background-color: rgb(248 , 249 , 250) ; display: inline ; float: none&quot;&gt;跨模态纬度&lt;/span&gt;" style="text;whiteSpace=wrap;html=1;fontSize=11;fontColor=#B3B3B3;" vertex="1" parent="1">
          <mxGeometry x="757.0000000000001" y="280" width="70" height="30" as="geometry" />
        </mxCell>
        <mxCell id="PBYCk-HcuRerdCBnMbYj-47" value="" style="endArrow=classic;html=1;fontSize=11;fontColor=#B3B3B3;exitX=1.007;exitY=0.87;exitDx=0;exitDy=0;exitPerimeter=0;dashed=1;strokeWidth=0.5;rounded=1;" edge="1" parent="1" source="PBYCk-HcuRerdCBnMbYj-23">
          <mxGeometry width="50" height="50" relative="1" as="geometry">
            <mxPoint x="1009.1999999999999" y="285.62" as="sourcePoint" />
            <mxPoint x="1103.31" y="265.6199999999999" as="targetPoint" />
          </mxGeometry>
        </mxCell>
        <mxCell id="PBYCk-HcuRerdCBnMbYj-48" value="&lt;font style=&quot;font-size: 11px&quot; color=&quot;#b3b3b3&quot;&gt;文本纬度&lt;/font&gt;" style="text;html=1;strokeColor=none;fillColor=none;align=center;verticalAlign=middle;whiteSpace=wrap;rounded=0;dashed=1;" vertex="1" parent="1">
          <mxGeometry x="839.11" y="157.19" width="60" height="30" as="geometry" />
        </mxCell>
        <mxCell id="PBYCk-HcuRerdCBnMbYj-52" style="edgeStyle=orthogonalEdgeStyle;rounded=1;orthogonalLoop=1;jettySize=auto;html=1;entryX=0.5;entryY=0;entryDx=0;entryDy=0;strokeWidth=0.5;fontColor=#000000;" edge="1" parent="1" source="PBYCk-HcuRerdCBnMbYj-49" target="PBYCk-HcuRerdCBnMbYj-39">
          <mxGeometry relative="1" as="geometry">
            <Array as="points">
              <mxPoint x="1322" y="230" />
              <mxPoint x="1187" y="230" />
            </Array>
          </mxGeometry>
        </mxCell>
        <mxCell id="PBYCk-HcuRerdCBnMbYj-49" value="图片分类" style="rounded=1;whiteSpace=wrap;html=1;fontFamily=Lucida Console;" vertex="1" parent="1">
          <mxGeometry x="1290" y="187.19" width="64.19" height="25.62" as="geometry" />
        </mxCell>
      </root>
    </mxGraphModel>
  </diagram>
</mxfile>
